<svg xmlns="http://www.w3.org/2000/svg" version="1.1" xmlns:xlink="http://www.w3.org/1999/xlink" xmlns:svgjs="http://svgjs.com/svgjs" width="308.4" height="437.4"><svg version="1.1" id="SvgjsSvg1000" xmlns="http://www.w3.org/2000/svg" xmlns:xlink="http://www.w3.org/1999/xlink" x="0px" y="0px" viewBox="0 0 308.4 437.4" style="enable-background:new 0 0 308.4 437.4;" xml:space="preserve">
<style type="text/css">
	.st0{fill:#BF655F;}
	.st1{fill:#573A32;}
	.st2{fill:#C28D62;stroke:#33221D;stroke-width:16;stroke-miterlimit:10;}
</style>
<path class="st0" d="M184.8,371.2c-74.5,0-107.9-90-107.9-179.2S110.3,12.8,184.8,12.8c34.6,0,59.8,19.5,67.5,52.1
	c7.3,31-3.9,64.8-26.1,83.2c9.3,7.2,18.9,20.1,18.9,43.9c0,23.3-10.7,35.6-20.9,42.4c23.4,18,35.5,52.9,28,84.7
	C244.6,351.7,219.3,371.2,184.8,371.2z"></path>
<path class="st1" d="M257.1,180.8c-1.8-14.3-6.7-24.9-12.7-32.6c19.2-22.2,27.7-55,20.4-86.2c-9-38.2-39.7-62-79.9-62
	C101.4,0,64.1,96.4,64.1,192s37.3,192,120.7,192c40.3,0,70.9-23.7,79.9-62c7.5-31.8-1.5-65.3-21.5-87.6c6.7-7.6,11-16.8,13.1-27.3
	c3.6,1.4,6.1,3.2,7.7,4.8c20,20.2,19.3,67.4,18.3,172c-0.3,28-0.6,6.4-0.6,40.5c0,7.1,5.7,12.8,12.8,12.8s12.8-5.7,12.8-12.8
	c0-34,0.3-12.3,0.6-40.3c1.2-122.8,1.9-162.5-25.7-190.3C275.5,187.2,267,182.8,257.1,180.8z M232.3,192c0,47.5-53.8,32.5-23.8,47.5
	c47.5,23.8,47.5,118.9-23.8,118.9S89.7,263.3,89.7,192s23.8-166.4,95.1-166.4s71.3,95.1,23.8,118.9
	C187.3,155.1,232.3,144.5,232.3,192z"></path>
<circle class="st2" cx="76.9" cy="118.1" r="68.9"></circle>
</svg><style>@media (prefers-color-scheme: light) { :root { filter: none; } }
</style></svg>