<?xml version="1.0" encoding="utf-8"?>
<!-- Generator: Adobe Illustrator 25.2.0, SVG Export Plug-In . SVG Version: 6.00 Build 0)  -->
<svg version="1.1" id="Layer_1" xmlns="http://www.w3.org/2000/svg" xmlns:xlink="http://www.w3.org/1999/xlink" x="0px" y="0px"
	 viewBox="0 0 375 375" style="enable-background:new 0 0 375 375;" xml:space="preserve">
<style type="text/css">
	.st0{fill:#BF655F;}
	.st1{fill:#573A32;}
	.st2{fill:#C28D62;stroke:#33221D;stroke-width:16;stroke-miterlimit:10;}
</style>
<path class="st0" d="M213.9,317.9c-74.5,0-107.9-77-107.9-153.3S139.4,11.4,213.9,11.4c34.6,0,59.8,16.7,67.5,44.6
	c7.3,26.5-3.9,55.4-26.1,71.2c9.3,6.2,18.9,17.2,18.9,37.6c0,19.9-10.7,30.4-20.9,36.2c23.4,15.4,35.5,45.2,28,72.5
	C273.7,301.3,248.5,317.9,213.9,317.9z"/>
<path class="st1" d="M286.2,155.1c-1.8-12.2-6.7-21.3-12.7-27.8c19.2-19,27.7-47.1,20.4-73.8c-9-32.7-39.7-53-79.9-53
	c-83.4,0-120.7,82.5-120.7,164.2s37.3,164.2,120.7,164.2c40.3,0,70.9-20.3,79.9-53c7.5-27.2-1.5-55.9-21.5-74.9
	c6.7-6.5,11-14.3,13.1-23.3c3.6,1.2,6.1,2.8,7.7,4.1c20,17.3,19.3,57.6,18.3,147.2c-0.3,23.9-0.6,5.5-0.6,34.7
	c0,6.1,5.7,10.9,12.8,10.9s12.8-4.9,12.8-10.9c0-29.1,0.3-10.6,0.6-34.4c1.2-105.1,1.9-139-25.7-162.8
	C304.6,160.5,296.1,156.8,286.2,155.1z M261.5,164.7c0,40.7-53.8,27.8-23.8,40.7c47.5,20.3,47.5,101.7-23.8,101.7
	s-95.1-81.3-95.1-142.3s23.8-142.3,95.1-142.3s71.3,81.3,23.8,101.7C216.4,133.1,261.5,124,261.5,164.7z"/>
<circle class="st2" cx="114.4" cy="98.4" r="68.9"/>
</svg>
